<svg xmlns="http://www.w3.org/2000/svg" width="659" height="774"><path d="M0 0h659v774H0V0Z" fill="#568398"/><path d="M359 237c6.064 4.913 12.12 10.478 13.656 18.375 1.626 17.144 1.837 34.419 2.344 51.625a871.015 871.015 0 0 0 6-9.563l1.734-2.712c3.087-5.016 5.302-8.645 4.266-14.725-1.008-2.375-1.008-2.375-2.5-4.313-2.5-3.534-2.5-3.534-2.5-5.687l1.828.621 2.422.817 2.39.808L391 273l2.047.66c1.983.492 1.983.492 3.988-.246 1.965-.414 1.965-.414 3.711.484 4.716 4.117 7.537 8.488 10.254 14.102l1 2c1.465 10.07-1.663 16.7-7 25l-1.575 2.461a1083.75 1083.75 0 0 1-10.116 15.455c-3.25 5.172-4.13 8.999-3.309 15.084a79.37 79.37 0 0 0 2 5c2.334 5.328 3.063 10.354 1.41 16.023-.62 2.29-.907 3.64-.41 5.977 2.342 2.565 4.817 4.628 7.582 6.727 2.778 2.612 3.511 4.615 4.418 8.273-4.75 4-4.75 4-7 4 1.823 3.432 3.92 5.949 6.625 8.688 3.272 3.73 4.465 6.512 4.664 11.464-.475 4.676-1.882 9.013-3.379 13.453-1.739 6.487-.891 11.307 1.567 17.473l.81 2.065a839.735 839.735 0 0 0 1.77 4.476 612.075 612.075 0 0 1 2.868 7.406c9.151 24.003 18.755 47.726 29.411 71.1 2.224 4.882 4.404 9.782 6.559 14.695l.9 2.049c3.178 7.271 3.8 13.86 4.202 21.7.085 1.491.188 2.982.31 4.471.992 12.31.992 12.31-2.016 16.131-2.359 1.596-4.673 2.714-7.291 3.829-1.463.85-2.916 1.715-4.36 2.598-7.699 4.367-15.276 8.346-23.636 11.328-3.035 1.085-5.979 2.305-8.942 3.574-11.225 4.685-22.072 8.26-34.021 10.386-2.043.364-4.08.75-6.12 1.137-37.4 6.963-76.932 4.13-112.921-8.023l-2.553-.854C220.744 602.328 190.449 584.05 167 560l-1.938-1.906C161.458 554.54 158.137 550.98 155 547l-2-1c.125-1.688.125-1.688 1-4a317.62 317.62 0 0 1 6-5l1-3c2.993 1.098 3.846 1.677 5.25 4.625L167 541h2l-1.129-2.71-1.434-3.665-1.44-3.586c-2.684-8.752.865-18.905 2.753-27.539l.814-3.767c1.616-7.353 3.412-14.604 5.532-21.825 2.965-10.286 5.068-20.801 7.319-31.261A200.98 200.98 0 0 1 183 440h2l.77 3.586c2.082 9.881 2.082 9.881 4.792 19.601 1.695 5.305 2.67 10.735 3.692 16.2.705 3.659.705 3.659 1.84 7.351 2.444 8.798-2.179 18-5.094 26.262l1 1 1.242-1.75 1.633-2.25 1.617-2.25L198 506h2c1.968 5.823 3.402 10.834 3 17 4.004-2.212 7.162-4.82 10.5-7.938 2.676-2.491 5.323-4.922 8.188-7.195 2.87-2.318 4.981-5.012 7.312-7.867l5-5 1.688-2.313L237 491h2l.352-3.852c.59-5.289 1.747-10.363 3.023-15.523l.675-2.78c1.541-6.311 3.151-12.601 4.95-18.845h-4v2c-2.52.65-5.04 1.295-7.563 1.938l-2.134.552c-7.051 1.787-13.82 2.661-21.115 2.697l-3.958.043C206 457 206 457 204 455c-.121-2.266-.121-2.266 1-5 2.442-2.22 5.174-3.956 7.938-5.75 6.857-4.64 13.113-9.465 19.062-15.25l2.063-1.91c4.895-4.657 8.884-9.803 12.859-15.258C249 409 249 409 251.23 406.516c2.157-3.066 2.263-4.862 2.333-8.579.268-5.552 1.157-10.473 2.617-15.824.905-3.434 1.616-6.883 2.32-10.363 1.107-5.173 2.298-9.942 4.5-14.75l1.5-3.277c3.413-7.232 7.22-13.675 12.5-19.723l2.043-2.371c2.807-3.208 5.622-6.31 8.707-9.254 4.84-5.109 7.097-11.31 9.438-17.813 2.29-6.147 4.898-11.8 8.25-17.437 6.415-10.91 10.875-22.597 14.628-34.664l1.045-3.318a303.44 303.44 0 0 0 1.924-6.45c2.24-7.264 2.24-7.264 5.762-9.35C339.177 232.23 349.6 231.842 359 237Z" fill="#0E2530"/><path d="M358.047 166.735c1.752.238 3.508.437 5.265.632 9.657 1.207 18.876 4.078 28.167 6.88 2.236.668 4.477 1.31 6.724 1.94 27.162 7.799 51.768 22.42 73.797 39.813l2.668 2.04c12.8 10.03 24.51 22.008 34.332 34.96l1.621 2.094A301.763 301.763 0 0 1 515 261l1.605 2.152c5.496 7.558 9.98 15.629 14.395 23.848l1.052 1.946c8.141 15.202 14.33 31.446 18.948 48.054l.61 2.14c1.574 5.868 2.46 11.863 3.39 17.86l.57 3.46c.55 3.509 1.015 7.014 1.43 10.54l.406 3.203c.427 5.938-.193 9.233-3.968 13.922A3760.926 3760.926 0 0 1 549 393a181.726 181.726 0 0 0-3.625 5.125c-2.203 3.186-4.41 6.367-6.688 9.5l-1.425 1.977L536 411h-2l-.77-3.875-1.043-5.125-.501-2.543-.518-2.52-.46-2.285c-.97-3.632-2.388-7.132-3.708-10.652l-6 25c-3.234-1.617-4.896-2.63-7.39-5.012l-1.889-1.786-1.971-1.89c-1.352-1.279-2.705-2.558-4.059-3.835l-1.948-1.843c-2.573-2.412-5.223-4.727-7.891-7.032-7.743-6.698-15.19-13.706-22.612-20.754a381.468 381.468 0 0 0-12.316-11.16c-3.036-2.664-5.978-5.425-8.924-8.188-4.373-4.085-8.774-8.113-13.328-11.996-1.756-1.58-3.324-3.267-4.922-5.004L431 328c-3.515.247-5.238 1.872-7.645 4.316l-2.052 2.069-2.115 2.178-2.08 2.095c-3.996 4.057-7.804 8.233-11.525 12.541-2.08 2.366-4.277 4.592-6.52 6.801l-2.34 2.313L395 362c-7.803-15.36-7.803-15.36-6-23 1.922-4.261 4.43-8.109 7-12 1.413-2.17 2.823-4.341 4.231-6.514.947-1.453 1.9-2.903 2.86-4.347 5.776-8.763 9.336-15.346 7.909-26.139-1.716-5.678-5.512-11.129-10-15-2.32-.903-3.498-1.157-5.89-.41-3.156.613-5.018-.64-7.86-2.027l-2.984-1.434L382 270l1.313 1.941 1.687 2.622 1.688 2.566c1.736 3.798 1.952 5.703 1.312 9.871-1.849 3.844-4.108 7.37-6.438 10.938l-1.853 2.939c-3.205 5.033-3.205 5.033-4.709 7.123h-1l-.076-2.668c1.587-32.728 1.587-32.728-8.924-61.332l-1.309-1.7c-4.384-5.164-10.186-7.006-16.691-8.3-6.783-.478-13.324-.414-20 1l-.775 2.437c-12.447 38.873-12.447 38.873-22.702 54.68-2.277 4.31-3.805 8.868-5.46 13.446-3.34 9.131-6.793 16.028-14.438 22.25-14.09 11.531-21.576 30.87-25.625 48.187h-2a81.996 81.996 0 0 1-3.813-4.625l-2.152-2.754L248 366c-3.015-4.058-3.015-4.058-7-7l-.84 1.771c-1.103 2.119-2.304 3.96-3.707 5.89l-1.54 2.125-1.663 2.277-1.74 2.394A3231.45 3231.45 0 0 1 226 381l-1.788 2.442c-6.792 9.268-13.63 18.5-20.57 27.66-2.537 3.31-2.537 3.31-4.642 6.898-4.337-1.394-6.697-3.401-9.813-6.687a163.883 163.883 0 0 0-11.335-10.676c-1.811-1.601-3.486-3.274-5.165-5.012-3.737-3.815-7.859-7.097-12.039-10.414-2.718-2.27-5.162-4.69-7.648-7.211a643.002 643.002 0 0 0-5.813-5.375l-1.594-1.46a409.232 409.232 0 0 0-8.843-7.852c-2.649-2.29-5.122-4.678-7.563-7.188-3.063-3.118-6.278-5.889-9.687-8.625a4175.021 4175.021 0 0 1-5.5-4.5l-2.55-2.031-2.263-1.969-2.019-1.687c-1.958-3.876-.382-7.315.832-11.313l.656-2.231C119.163 289.73 138.246 259.436 163 234l1.642-1.704c13.515-13.99 13.515-13.99 20.358-18.296h2v-2c1.706-1.385 1.706-1.385 4.102-2.977l2.655-1.772 2.868-1.876 2.902-1.912c9.72-6.356 19.356-12.554 30.301-16.596 2.1-.838 3.929-1.821 5.86-2.992 3.441-1.948 6.517-2.8 10.312-3.875 2.36-.922 4.714-1.86 7.063-2.812 9.375-3.677 19.102-5.692 28.944-7.71 2.05-.412 2.05-.412 3.993-1.478 23.732-3.896 48.213-4.542 72.047-1.265Z" fill="#DDF5FE"/><path d="M430.035 326.84c2.873 1.696 4.914 3.873 7.215 6.285 3.734 3.852 7.528 7.528 11.605 11.016 2.677 2.32 5.288 4.711 7.895 7.109a2315172491.181 2315172491.181 0 0 0 4.677 4.302c2.564 2.36 5.13 4.717 7.698 7.073l1.521 1.396c3.038 2.784 6.095 5.545 9.166 8.291 4.327 3.88 8.573 7.84 12.813 11.813 4.404 4.126 8.82 8.216 13.398 12.148 3.616 3.159 7.128 6.434 10.657 9.688 2.14 2.055 2.14 2.055 4.32 3.039l.379-3.45c.568-4.53 1.505-8.923 2.558-13.363l.514-2.271c.812-3.454 1.562-5.935 3.549-8.916l.988 3.953a2256958606.431 2256958606.431 0 0 1 2.02 8.083 1558.45 1558.45 0 0 0 2.887 11.437c1.702 6.618 3.086 13.272 4.359 19.984.698 3.575.698 3.575 1.836 7.117 1.447 5.447 1.136 9.577-.84 14.824l-1.094 2.95-1.156 3.027-1.156 3.098c-.94 2.512-1.888 5.021-2.844 7.527h2l.625-2.063c1.804-3.853 4.276-7.015 7.375-9.937h2c.342 1.373.673 2.749 1 4.125l.563 2.32c1.728 10.094-2.626 19.187-7.235 27.961-1.434 2.8-2.688 5.651-3.953 8.531-6.511 14.139-14.722 27.148-24.199 39.468-1.2 1.629-2.285 3.304-3.367 5.013L506 541h-2l-.75 1.688c-1.48 2.736-3.185 4.989-5.25 7.312h-2l-.656 1.64c-1.809 3.176-4.261 5.567-6.844 8.11l-1.512 1.535C483.253 565 483.253 565 481 565v2a149.071 149.071 0 0 1-6.625 5.313c-1.243.953-2.485 1.907-3.727 2.863l-1.851 1.414c-1.74 1.366-3.413 2.788-5.086 4.234C461 583 461 583 458.25 583.5l-2.25.5a124.97 124.97 0 0 0-2 5c-2.125.813-2.125.813-4 1l1.484-1.07c3.145-4.003 1.767-10.25 1.59-15.169-.073-2.16-.104-4.317-.133-6.478-.214-9.039-1.924-16.132-5.941-24.283a659.4 659.4 0 0 1-2.652-5.95c-.964-2.18-1.94-4.357-2.917-6.532-11.555-25.728-22.133-51.804-32.153-78.166a472.635 472.635 0 0 0-2.513-6.454c-3.113-8.02-3.49-13.441-.702-21.71C408.6 415.59 408.6 415.59 407 407c-2.184-2.858-4.488-5.365-7.066-7.871C398 397 398 397 398 394c3-2.188 3-2.188 6-4-1.274-5.14-3.009-7.204-7.188-10.375-4.663-3.993-4.663-3.993-5.316-6.77.266-2.136.74-3.842 1.504-5.855l.66-2.809c1.824-4.343 4.634-6.876 8.027-10.066 1.285-1.243 2.567-2.488 3.848-3.734l1.844-1.787c1.85-1.831 3.57-3.739 5.246-5.729 3.073-3.592 6.282-7.035 9.563-10.438l1.55-1.666c3.642-3.722 3.642-3.722 6.297-3.931Z" fill="#568297"/><path d="M527 381c1.747 3.152 2.617 6.146 3.402 9.656l.76 3.352.775 3.492c2.188 9.736 4.458 19.438 7.012 29.086l.739 2.789c.25.936.502 1.872.761 2.836 1.022 5.173.653 9.268-1.199 14.187-.36.974-.722 1.947-1.094 2.95L537 452.375l-1.156 3.098c-.94 2.512-1.888 5.021-2.844 7.527h2l.625-2.063c1.804-3.853 4.276-7.015 7.375-9.937h2c.342 1.373.673 2.749 1 4.125l.563 2.32c1.728 10.094-2.626 19.187-7.235 27.961-1.434 2.8-2.688 5.651-3.953 8.531-6.511 14.139-14.722 27.148-24.199 39.468-1.2 1.629-2.285 3.304-3.367 5.013L506 541h-2l-.75 1.688c-1.48 2.736-3.185 4.989-5.25 7.312h-2l-.656 1.64c-1.809 3.176-4.261 5.567-6.844 8.11l-1.512 1.535C483.253 565 483.253 565 481 565v2a149.071 149.071 0 0 1-6.625 5.313c-1.243.953-2.485 1.907-3.727 2.863l-1.85 1.412c-1.752 1.376-3.435 2.812-5.118 4.271C461 583 461 583 458.75 582.937 457 582 457 582 455 580c.334-10.653 4.337-21.742 7-32 2.867.573 3.861.861 6 3l-.656-1.871c-3.321-10.102-2.661-16.72.441-26.832 1.855-6.285 3.11-12.718 4.464-19.126 1.146-5.423 2.369-10.803 3.751-16.171.518-2.016 1.034-4.032 1.549-6.049.343-1.347.69-2.693 1.039-4.039.84-3.31 1.48-6.444 1.908-9.846L481 464l2-1a3079.62 3079.62 0 0 1 4 16l.762 3.066a3236.9 3236.9 0 0 1 2.425 9.872l.794 3.19c4.126 16.99 4.126 16.99.082 26.435l-.881 2.189A344.177 344.177 0 0 1 488 529l1 1c4.269-5.28 5.932-9.351 7-16 .315-1.756.633-3.51.953-5.266l.498-2.795c.981-5.255 2.147-10.47 3.299-15.689l.676-3.086c.523-2.388 1.048-4.776 1.574-7.164 3.532 1.177 3.863 1.956 5.688 5.063l1.324 2.222L511 489c-.457-1.542-.916-3.084-1.375-4.625l-.82-2.785c-.798-2.698-.798-2.698-2.055-5.652-1.718-6.73.605-14.069 2.29-20.66.2-.812.403-1.623.61-2.459.431-1.732.864-3.464 1.3-5.195 3.877-15.427 7.531-30.88 10.804-46.447 1.452-6.838 3.09-13.525 5.246-20.177Z" fill="#324B59"/><path d="m127 388 2 1c.607 2.031.607 2.031 1.113 4.715l.587 2.994.613 3.228c1.82 9.194 3.95 18.193 6.574 27.188 2.755 9.532 3.871 16.513.738 26.063l-.672 2.154c-1.035 3.235-2.058 5.815-3.953 8.658v3l1.242-1.969 1.633-2.531 1.617-2.531L140 458h2v-2h2c2.327 4.317 3.186 8.67 4.188 13.438l.576 2.564c1.572 7.41.921 11.305-3.155 17.672l-1.359 2.076c-.91 1.42-1.82 2.843-2.727 4.266l-1.32 2.068c-2.23 3.554-4.223 7.22-6.203 10.916a135149.151 135149.151 0 0 1 6.75-5.313l1.922-1.513c1.23-.967 2.46-1.932 3.693-2.895a557.188 557.188 0 0 0 3.963-3.134C152 495 152 495 154 495c.849 3.33 1.676 6.664 2.5 10l.723 2.832c3.169 12.948 3.169 12.948.57 18.961l-1.606 2.394-1.582 2.418L153 534a520.606 520.606 0 0 0-3 5c-3.262-1.087-3.675-1.543-5.566-4.219l-1.456-2.049-1.54-2.232-1.61-2.31c-5.374-7.822-10.206-15.906-14.828-24.19l-1.208-2.141c-4.269-7.611-8.174-15.262-11.292-23.421l-.737-1.91c-3.722-10.258-2.188-17.564.424-27.903.331-1.351.66-2.703.988-4.055.645-2.659 1.296-5.316 1.95-7.972 1.089-4.477 2.09-8.97 3.063-13.473 2.583-11.798 5.56-23.493 8.812-35.125Z" fill="#314B59"/><path d="M183 440h2l.77 3.586c2.082 9.881 2.082 9.881 4.792 19.601 1.695 5.305 2.67 10.735 3.692 16.2.705 3.659.705 3.659 1.84 7.351 2.444 8.798-2.179 18-5.094 26.262l1 1 1.242-1.75 1.633-2.25 1.617-2.25L198 506h2c1.968 5.823 3.402 10.834 3 17l3 1h-3v2a88.335 88.335 0 0 1-5.25 3.375c-3.732 2.241-6.788 4.423-9.75 7.625 1.309 3.122 1.309 3.122 4 5-.063 2.313-.063 2.313-1 5a81.925 81.925 0 0 1-7 3l-1.948.735-1.947.73-1.955.736a288.83 288.83 0 0 1-3.984 1.461c-3.897 1.487-3.897 1.487-6.615 4.53L167 560c-4.263-4.17-8.305-8.31-12-13l-2-1c.125-1.688.125-1.688 1-4a317.62 317.62 0 0 1 6-5l1-3c2.993 1.098 3.846 1.677 5.25 4.625L167 541h2l-1.129-2.71-1.434-3.665-1.44-3.586c-2.684-8.752.865-18.905 2.753-27.539l.814-3.767c1.616-7.353 3.412-14.604 5.532-21.825 2.965-10.286 5.068-20.801 7.319-31.261A200.98 200.98 0 0 1 183 440Z" fill="#314A58"/><path d="M394 51h19v2l2.25.25c3.365.918 4.576 2.051 6.75 4.75 2.403 4.578 2.322 8.91 2.336 13.957l.02 2.612c.01 1.82.015 3.639.015 5.459.004 2.765.04 5.529.078 8.294.006 1.774.01 3.548.012 5.323l.043 2.478c-.043 5.504-.84 10.573-4.504 14.877-7 4-7 4-26 4V51Z" fill="#D4EFF8"/><path d="M230 51c2.333-.042 4.667-.04 7 0 1.504 1.504 1.334 2.964 1.573 5.06l.303 2.61.315 2.834.332 2.888c.35 3.056.695 6.113 1.04 9.17.235 2.068.472 4.135.708 6.202.581 5.078 1.157 10.157 1.729 15.236l.627-3.732c.766-4.559 1.537-9.117 2.309-13.675.334-1.975.666-3.95.998-5.925.476-2.835.956-5.67 1.437-8.504l.448-2.686.425-2.487.37-2.194C250 54 250 54 251 52h7a28779.832 28779.832 0 0 1 3.361 19.518l1.229 7.142.382 2.21c.749 4.369 1.421 8.74 2.028 13.13l.55-3.855L271 52h7c-.532 11.669-1.967 23.148-3.584 34.71-.42 3.01-.833 6.02-1.244 9.03-.265 1.924-.53 3.848-.797 5.772l-.373 2.711-.354 2.522c-.1.727-.202 1.455-.307 2.205-.341 2.053-.808 4.039-1.341 6.05h-8l-.411-2.272c-.63-3.473-1.266-6.944-1.901-10.415l-.647-3.573A448.703 448.703 0 0 0 254 75c-.84 4.41-1.675 8.821-2.509 13.232-.283 1.498-.567 2.995-.852 4.493-.412 2.164-.82 4.329-1.229 6.494l-.382 1.996c-.86 4.583-1.485 9.156-2.028 13.785h-9a34352.938 34352.938 0 0 1-3.286-23.421c-1.342-9.552-2.682-19.105-3.91-28.673l-.476-3.709A63.972 63.972 0 0 1 230 51Z" fill="#D4F0F8"/><path d="M401 58h11v2l1.938.875C416 62 416 62 417 64c.136 2.786.213 5.545.238 8.332l.025 2.511c.014 1.756.024 3.513.032 5.269.017 2.68.061 5.359.105 8.038.01 1.707.019 3.413.026 5.12l.053 2.421c-.015 3.926-.208 5.87-2.318 9.292-4.533 4.23-7.393 3.017-14.161 3.017V58Z" fill="#5E889A"/><path d="M224 674c13 0 13 0 16.313 1.875 3.122 5.782 2.095 11.89.687 18.125l1 1c.693 5.717 1.097 10.416-2.25 15.25C236 712 236 712 224 712v-38Z" fill="#C0E0EA"/><path d="M272 674c2.695 1.777 2.695 1.777 5 5 .7 4.158.606 8.232.5 12.438l.008 3.392c-.123 10.389-.123 10.389-3.508 15.17-3.75 2.5-5.559 2.536-10 2-3.262-2.558-4.815-4.048-5.615-8.166l.021-3.525.008-3.862.044-1.995c.042-2.013.041-4.023.034-6.036.112-11.031.112-11.031 3.508-14.416 3.846-1.282 6.067-.95 10 0Z" fill="#C7E7F1"/><path d="M424 674c2.441 1.349 3.693 2.084 4.587 4.75.888 4.834.684 9.788.726 14.688l.087 3.431c.064 8.341.064 8.341-2.295 12.354-2.738 2.312-3.791 2.741-7.418 3.152-3.588-.365-5.213-.764-7.668-3.4-2.465-4.779-1.636-10.744-1.519-15.975l-.008-3.852c.113-10.725.113-10.725 3.508-15.148 3.78-1.26 6.122-.816 10 0Z" fill="#D9F5FD"/><path d="M344 52h7v56h17v7h-24V52Z" fill="#D2EFF7"/><path d="M306 51h7v64h-7V51Z" fill="#D7F2FA"/><path d="M196 674h5c7.341 25.936 7.341 25.936 7 37h-4v-7h-10l-1 7h-4c.784-7.778 2.45-15.36 4.063-23l.853-4.082A5952.16 5952.16 0 0 1 196 674Z" fill="#D2EFF8"/><path d="M446 674h5l1 32 5 1c2.865-2.865 2.316-4.968 2.414-8.977l.059-2.076c.06-2.19.106-4.381.152-6.572.038-1.484.077-2.969.117-4.453.096-3.64.18-7.281.258-10.922h4c.1 4.466.172 8.93.22 13.397.02 1.518.047 3.036.082 4.554.049 2.187.071 4.373.089 6.56l.063 3.984c-.525 4.053-1.592 5.652-4.454 8.505-3.139 1.57-5.539 1.352-9 1-3.559-2.691-4.864-4.14-5.568-8.597.001-1.37.029-2.74.08-4.11l.021-2.198c.028-2.304.09-4.605.154-6.908.026-1.567.048-3.134.069-4.7A915.9 915.9 0 0 1 446 674Z" fill="#C4E5EE"/><path d="M294 674h5l1 32 6 2c1.164-3.492 1.211-6.391 1.316-10.074l.063-2.072c.066-2.18.125-4.361.183-6.542l.131-4.439c.107-3.624.209-7.249.307-10.873h4c.124 4.447.215 8.894.275 13.342.025 1.512.059 3.023.102 4.533.061 2.18.09 4.359.111 6.54l.08 3.966c-.742 4.731-2.2 6.286-5.568 9.619-3.103 1.127-4.603.593-8 0-3.2-3.117-4.948-5.597-5.114-10.073l.016-3.904.005-2.076c.005-2.19.018-4.381.03-6.572.006-1.484.01-2.969.014-4.453.011-3.64.028-7.281.049-10.922Z" fill="#C7E6EF"/><path d="M420.063 677.813C423 678 423 678 424 679c.254 4.473.185 8.958.188 13.438l.037 3.837.005 3.659.013 3.376C424 706 424 706 422 708c-2.5.313-2.5.313-5 0-2.275-3.413-2.257-4.681-2.266-8.691l-.007-3.362.023-3.51-.023-3.521.007-3.357.007-3.085c.405-3.866 1.524-4.429 5.322-4.662Z" fill="#578294"/><path d="M271 678c2.7 2.7 1.186 10.797 1.188 14.438l.037 3.837.005 3.659.013 3.376C272 706 272 706 270 708c-2.5.313-2.5.313-5 0-3.19-4.784-2.328-9.94-2.313-15.563l-.048-3.521-.002-3.357-.01-3.085L263 680c3.222-2.148 4.278-2.294 8-2Z" fill="#5E8798"/><path d="m336 234-2.414 1.105c-2.833 1.69-2.833 1.69-3.547 4.82l-.414 3.387-.46 3.364c-.313 3.313-.313 3.313.534 6.43.301 2.894.301 2.894-1.281 5.457l-2.23 2.437c-3.22 3.555-4.912 6.354-6.188 11h-3c-2.15.95-2.15.95-4 2l1.2-3.535a445.33 445.33 0 0 0 3.468-10.883c.82-2.66 1.66-5.315 2.501-7.968.432-1.378.856-2.758 1.27-4.14a342.097 342.097 0 0 1 1.893-6.033l1.116-3.603C326 235 326 235 329.018 233.574c2.846-.548 4.316-.6 6.982.426Z" fill="#1F3A46"/><path d="M376 674c2.324.152 2.324.152 5 1 1.582 2.504 1.582 2.504 2.813 5.563l1.269 3.066L386 686c2.075-2.64 3.727-5.228 5.188-8.25l1.042-2.14.77-1.61h4c-.814 2.812-1.622 5.411-3.21 7.887-5.48 8.82-4.72 19.047-4.79 29.113h-5l.02-1.706c.043-13.098-1.319-22.009-8.02-33.294v-2Z" fill="#C4E5EE"/><path d="M237 676c1.938.375 1.938.375 4 1 2.444 4.888 1.164 11.846 0 17l1 1c.178 1.932.268 3.873.313 5.813l.113 3.207C242 707 242 707 240.402 709.37c-3.207 2.175-5.314 2.033-9.152 1.879l-3.547-.11L225 711v-11l3-1v8l3.938-.438c.73-.08 1.461-.162 2.214-.246 1.86-.135 1.86-.135 2.848-1.316.072-1.52.084-3.042.063-4.563l-.028-2.503L237 696l-8-1v-2l4-1-4-2 3.438-.375L236 689c1.322-2.645 1.097-4.678 1.063-7.625l-.028-3.04L237 676Z" fill="#CCEBF4"/><path d="M327 674h16v4h-6v33h-4v-33h-6v-4Z" fill="#D0EEF8"/><path d="M196 674h5c.7 2.414 1.385 4.83 2.063 7.25l.603 2.066c1.734 6.267 1.734 6.267.334 9.684v-3h-2v10h-7l.035-2.703.028-3.547.035-3.516c.029-3.079.029-3.079-.66-5.359-.575-2.462-.11-4.187.5-6.625l.59-2.422L196 674Z" fill="#D1EFF7"/><path d="M414 680h1l.076 2.263c.116 3.371.239 6.741.361 10.112l.12 3.563.127 3.398.11 3.142c.048 2.516.048 2.516 1.206 4.522 2.416.25 2.416.25 5 0 2.051-3.077 2.273-3.936 2.414-7.45l.117-2.568.094-2.67.117-2.705c.094-2.202.18-4.404.258-6.607l2-1c1.426 4.279 1.305 8.391 1.375 12.875l.113 2.723c.061 4.592.024 6.715-2.793 10.496C423 712 423 712 419.5 712.625c-4.306-.769-5.76-2.304-8.5-5.625l1-2h1l1-25Z" fill="#D6F4FC"/><path d="m235 426 1 3-4.375 3.938-2.762 2.496a404.424 404.424 0 0 1-5.508 4.851c-5.544 4.829-10.017 9.773-14.355 15.715h12v1c-2.459.054-4.916.094-7.375.125l-2.117.05c-1.837.018-3.674-.072-5.508-.175-2-2-2-2-2.121-4.266 1.764-4.301 5.249-6.012 9.059-8.484 8.086-5.459 15.186-11.31 22.062-18.25Z" fill="#1B3A48"/><path d="m422 678 2 1c.058 4.458.094 8.916.125 13.375.017 1.271.034 2.542.05 3.852l.02 3.671.032 3.396C424 706 424 706 422 708c-2.5.313-2.5.313-5 0-2.298-3.446-2.236-4.71-2.195-8.762l.02-3.388.05-3.538.027-3.572c.024-2.913.057-5.827.098-8.74h1v7h2v18l4-1v-26Z" fill="#698E9B"/><path d="M229 695c6.152-.098 6.152-.098 8 0 1.589 1.589 1.17 3.248 1.188 5.438l.042 2.433C238 705 238 705 236 707c-3.625.125-3.625.125-7 0v-12Z" fill="#5C8697"/><path d="M275 683h1c.087 3.917.14 7.833.188 11.75l.076 3.367.029 3.242.048 2.984c-.396 3.082-1.202 4.435-3.341 6.657-2.761.528-5.164.186-8 0v-3l2.938-.938c2.903-.757 2.903-.757 4.062-2.062a64.35 64.35 0 0 0 .246-4.148l.1-2.547c.06-1.779.118-3.557.172-5.336l.103-2.555.076-2.345C273 686 273 686 275 683Z" fill="#D8F6FE"/><path d="M447 675h3v31l-3 1v-32Z" fill="#D9F5FD"/><path d="M229 679c6.152-.098 6.152-.098 8 0 1 1 1 1 1.188 4.375C238 687 238 687 236 690c-3.625.188-3.625.188-7 0v-11Z" fill="#5A8494"/><path d="M295 675h3c.074 3.95.129 7.902.165 11.853.022 2.006.06 4.012.099 6.018l.029 3.809.048 3.523L298 703l-3 2v-30Z" fill="#D9F8FE"/><path d="m425 676 3 1c1.282 3.193 1.115 6.458 1.098 9.86l-.01 3.378-.026 3.512-.013 3.559c-.012 2.897-.028 5.794-.049 8.691h-1l-.076-1.712c-.116-2.555-.239-5.109-.361-7.663l-.12-2.695-.127-2.578-.11-2.38c-.097-2.047-.097-2.047-1.206-3.972l-1 19h-1c-.029-4.292-.047-8.583-.063-12.875l-.025-3.707-.01-3.535-.016-3.27C424 678 424 678 425 676ZM273 676c3 1 3 1 4 3 .085 1.886.107 3.776.098 5.664l-.01 3.399-.026 3.562-.013 3.586c-.012 2.93-.028 5.86-.049 8.789h-1l-1-19c-1.55 1.55-1.217 3.1-1.316 5.254l-.127 2.588-.12 2.72-.13 2.733c-.107 2.235-.209 4.47-.307 6.705h-1c-.025-3.97-.043-7.939-.055-11.908-.005-1.351-.012-2.702-.02-4.054-.013-1.938-.018-3.877-.023-5.815l-.016-3.54C272 677 272 677 273 676Z" fill="#B7D8E2"/><path d="M259 680h3c.058 3.958.094 7.916.125 11.875l.05 3.418.02 3.262.032 3.015C262 704 262 704 260 706c-.926-3.139-1.117-5.937-1.098-9.203l.01-2.969.026-3.078.013-3.125c.012-2.542.028-5.083.049-7.625Z" fill="#D8F6FE"/><path d="m382 270 1.793.621C387.837 272 391.769 273.318 396 274v2h-2l-1 2-2 2a154.125 154.125 0 0 0-2 7h-1l-.297-1.758c-1.03-5.38-2.48-8.838-5.703-13.242v-2Z" fill="#1E353E"/><path d="M198 683h2c.338 1.895.67 3.791 1 5.688l.563 3.199c.388 2.762.52 5.33.437 8.113h-7c.31-2.084.623-4.167.938-6.25l.527-3.516c.408-2.465.874-4.828 1.535-7.234Z" fill="#779BA5"/><path d="M459 674h1c.074 4.36.129 8.72.165 13.08.015 1.483.035 2.966.061 4.45.037 2.131.054 4.263.067 6.396l.048 3.888C460 705 460 705 458.646 706.954 457 708 457 708 454.375 707.813 452 707 452 707 451 705l3-1v2l3-2c.606-3.098.606-3.098.73-6.758l.122-2.01c.125-2.118.23-4.237.336-6.357.08-1.436.164-2.872.248-4.309.203-3.521.388-7.043.564-10.566Z" fill="#7799A8"/><path d="M246 76c1.029 3.087.99 4.14.441 7.23l-.42 2.432-.458 2.525-.448 2.561c-.365 2.085-.74 4.169-1.115 6.252-2.354-2.354-2.279-2.93-2.414-6.133l-.117-2.441-.094-2.551-.117-2.574c-.095-2.1-.177-4.2-.258-6.301l5-1Z" fill="#668C9C"/><path d="M494 512h2c.115 8.789-1.976 13.63-8 20-1.415-4.244.304-7.151 1.875-11.125l.855-2.246c2.11-5.47 2.11-5.47 3.27-6.629Z" fill="#577A8A"/><path d="m294 313 2 4h-2v4l-2 1a134.078 134.078 0 0 0-3 6h-2l-1 3h-2c-1.67.318-3.337.65-5 1 2.769-3.302 5.501-6.525 8.625-9.5 2.82-2.969 4.463-5.89 6.375-9.5Z" fill="#28424E"/><path d="m424 674 2 2c-1.125 1.5-1.125 1.5-3 3-3 .188-3 .188-6 0h-5c.813-2.438.813-2.438 2-5 3.74-1.247 6.166-.767 10 0Z" fill="#C8E7F0"/><path d="M232 498c0 3.572-.588 3.98-2.938 6.5-2.137 2.304-3.045 3.448-4.062 6.5-1.926 1.316-1.926 1.316-4.313 2.563l-2.363 1.253A699.768 699.768 0 0 1 212 518c3.685-4.534 7.491-8.259 12-12a96.664 96.664 0 0 0 2.688-3.188C229 500 229 500 232 498Z" fill="#1C3D4A"/><path d="M414 680h1l.076 2.2c.116 3.308.239 6.617.361 9.925l.12 3.46.127 3.36.11 3.079c.21 3.043.657 5.977 1.206 8.976h6v1c-3.188.313-3.188.313-7 0-2.938-2.5-2.938-2.5-5-5l1-2h1l1-25Z" fill="#C7E8F3"/><path d="M309 281h1v6l4-1c-.75 7.75-.75 7.75-3 10v-2h-2c0-2 0-2 1-3l-5-1c1.199-3.083 2.477-6.063 4-9Z" fill="#213B47"/><path d="M387 692h1v19h-3v-17h2v-2Z" fill="#D6F5FD"/><path d="M453 559h1l.113 3.727c.066 1.632.132 3.265.2 4.898l.068 2.45c.224 5.013.964 8.525 3.619 12.925l-2 1-.875 2.5c-1.125 2.5-1.125 2.5-3.25 3.313L450 590l1.482-1.099c2.202-2.758 1.858-4.826 1.811-8.319l-.03-3.799-.075-3.97c-.016-1.336-.03-2.671-.042-4.006-.035-3.27-.084-6.538-.146-9.807Z" fill="#486B7B"/><path d="m228 699 1 8 6 1v2h-10v-10c2-1 2-1 3-1Z" fill="#D9F6FD"/><path d="M537 450h2v2l3 1a691 691 0 0 1-3.375 5l-1.898 2.813L535 463h-2c.72-4.609 2.313-8.672 4-13Z" fill="#577C8A"/><path d="M201 676h1c.532 2.08 1.05 4.165 1.563 6.25l.878 3.516c.51 2.955.589 4.478-.441 7.234v-3h-2v5h-1c-.893-6.582-.955-12.422 0-19Z" fill="#C3E5EF"/><path d="m235 426 1 3-2.047 1.828-2.703 2.422-2.672 2.39a100.85 100.85 0 0 0-4.734 4.61c-2.227 2.114-3.837 2.416-6.844 2.75 4.047-4.182 8.35-8.044 12.695-11.914A116.762 116.762 0 0 0 235 426Z" fill="#214351"/><path d="M254 73c1.906 3.212 2.223 5.539 2.125 9.25l-.055 2.703L256 87l-4 2c.14-2.292.288-4.584.438-6.875.08-1.276.162-2.552.246-3.867C253 75 253 75 254 73Z" fill="#658897"/><path d="M297 703c2 1.813 2 1.813 4 4v3l6 1v1c-5.285.44-5.285.44-8 0-2.5-2.5-2.5-2.5-4-5l2-4Z" fill="#C9E7F0"/><path d="M327 674h16v4h-6v-3h-10v-1Z" fill="#C9EAF5"/><path d="M237 426c2.25.25 2.25.25 4 1l-3 1v2a95.998 95.998 0 0 1-5 4.125l-2.813 2.195L228 438l-2-1c1.727-1.727 3.455-3.453 5.191-5.172a96.297 96.297 0 0 0 3.996-4.328L237 426Z" fill="#15313D"/><path d="m253 404 1 3c-1.6 2.133-3.213 4.036-5 6-1.064 1.27-2.127 2.54-3.188 3.813-2.562 3.062-2.562 3.062-4.812 4.187 1.456-3.186 3.258-5.763 5.438-8.5 2.225-2.807 4.425-5.624 6.562-8.5Z" fill="#214552"/><path d="m307 705 3 4c-2 2-2 2-3.945 2.195L300 711l1-3h5l1-3Z" fill="#D1F2F8"/><path d="M450 705c2 1.375 2 1.375 4 3v2l4 2c-3.25.313-3.25.313-7 0-2.438-2.5-2.438-2.5-4-5l3-2Z" fill="#C8E7EF"/><path d="m271 706 1 2 3 1c-2 2-2 2-3.945 2.195L265 711v-3l6-2Z" fill="#D2F0F9"/><path d="M497 523c5.875 4.625 5.875 4.625 7 8-4.75-.75-4.75-.75-7-3-.125-2.625-.125-2.625 0-5Z" fill="#547484"/><path d="m138 457 2 1c-1.394 4.435-3.606 6.874-7 10l1-6 3-1c.733-2.015.733-2.015 1-4Z" fill="#567887"/><path d="m459 705 2 1c0 3 0 3-1 5h-7c1-3 1-3 3.438-4.75L459 705Z" fill="#D2F2F8"/><path d="M198 692h2l-.063 2.375c-.124 2.606-.124 2.606 1.063 4.625h-5c-.125-2.375-.125-2.375 0-5l2-2Z" fill="#5A848F"/><path d="M161 534c1.938.813 1.938.813 4 2l1 3c-2.375.625-2.375.625-5 1l-2-2 2-4Z" fill="#305261"/><path d="M165 531c2.834 3.203 3.52 5.78 4 10h-2c-2.174-2.818-3.087-4.22-2.688-7.813L165 531Z" fill="#537382"/><path d="m139 505 2 1c-5.75 4.875-5.75 4.875-8 6l-2 3-1-3c2.503-2.682 4.653-4.5 8-6l1-1Z" fill="#395866"/><path d="m208 404 2 3-8 8c0-3.606.817-4.413 3-7.188l1.688-2.167L208 404Z" fill="#7499A7"/><path d="M237 52h1l1 16-3-2 1-14Z" fill="#B7D5E2"/><path d="M508 479c2.313 2.313 2.496 3.479 3.125 6.625l.508 2.477L512 490c-2.025-1.933-3.421-3.632-5-6 .375-2.688.375-2.688 1-5Z" fill="#51717E"/><path d="M203 699v3c-1 1-1 1-4.063 1.063L196 703v-3l7-1Z" fill="#D9F8FE"/><path d="M198 506h2l1 5-2.313.375c-2.89.506-2.89.506-5.687 2.625 1.37-2.95 2.878-5.525 5-8Z" fill="#365566"/><path d="M422 102c.75 1.625.75 1.625 1 4-1.938 3.25-1.938 3.25-4 6-.93-2.606-1.15-3.642-.063-6.25L420 104h2v-2Z" fill="#C9E9F3"/><path d="m173 565 2.25 1.125c2.693 1.17 2.693 1.17 5.063 0L182 565l-1 7a962.085 962.085 0 0 1-4-2.938l-2.25-1.652L173 566v-1Z" fill="#1F3E4D"/><path d="m138 502 3 3c-4.75 4-4.75 4-7 4 1.074-2.915 1.778-4.778 4-7Z" fill="#567A89"/><path d="m285 325 2 1c-1.188 2.438-1.188 2.438-3 5-2.688.813-2.688.813-5 1l6-7Z" fill="#36515B"/><path d="m236 679 2 1c.125 3.375.125 3.375 0 7l-2 2c-1.125-7.75-1.125-7.75 0-10Z" fill="#7699A6"/><path d="M466 544c1.648 2.967 2.443 5.656 3 9l-3-2v-2l-4-1v-2l3 1 1-3Z" fill="#4B6E7B"/><path d="M407 349c0 3.999-1.726 5.802-4 9l-3-2 7-7Z" fill="#6B8F9D"/><path d="m416 339 1 4c-2.375 1.563-2.375 1.563-5 3l-2-1 6-6Z" fill="#769CA9"/><path d="M206 705h2v6h-4l2-6Z" fill="#C9ECF6"/><path d="M196 674h5l-5 8c-.925-3.702-1.082-4.635 0-8Z" fill="#C2E3ED"/><path d="m192 413 8 2-1 3c-3.653-1.25-4.78-1.671-7-5Z" fill="#C1E4EC"/><path d="M170 224h2c-1.393 3.367-2.979 4.986-6 7l1-5h3v-2Z" fill="#628999"/><path d="m389 679 2 1-4 7-2-1v-3h3l1-4Z" fill="#6F909D"/><path d="M428 327c1.938.375 1.938.375 4 1l1 2-2.25-.125c-2.838.129-4.338.696-6.75 2.125l4-5Z" fill="#7294A4"/></svg>